<svg width="102" height="55" viewBox="0 0 102 55" fill="none" xmlns="http://www.w3.org/2000/svg">
<path d="M21.0893 0.727999L20.2253 5.588H9.92934L8.99334 11.024H16.6973L15.8333 15.704H8.12934L6.32934 26H0.173344L4.63734 0.727999H21.0893ZM31.8848 26.252C29.7488 26.252 27.8648 25.808 26.2328 24.92C24.6248 24.032 23.3768 22.784 22.4888 21.176C21.6008 19.568 21.1568 17.72 21.1568 15.632C21.1568 12.68 21.7928 10.052 23.0648 7.748C24.3368 5.42 26.1008 3.608 28.3568 2.312C30.6368 1.016 33.2168 0.368 36.0968 0.368C38.2568 0.368 40.1528 0.812 41.7848 1.7C43.4168 2.564 44.6768 3.8 45.5648 5.408C46.4528 6.992 46.8968 8.816 46.8968 10.88C46.8968 13.832 46.2608 16.484 44.9888 18.836C43.7168 21.164 41.9408 22.988 39.6608 24.308C37.3808 25.604 34.7888 26.252 31.8848 26.252ZM32.8208 20.564C34.4048 20.564 35.7968 20.156 36.9968 19.34C38.1968 18.524 39.1208 17.432 39.7688 16.064C40.4408 14.672 40.7768 13.172 40.7768 11.564C40.7768 9.836 40.2968 8.48 39.3368 7.496C38.3768 6.512 37.0328 6.02 35.3048 6.02C33.7208 6.02 32.3168 6.428 31.0928 7.244C29.8928 8.06 28.9568 9.152 28.2848 10.52C27.6368 11.864 27.3128 13.352 27.3128 14.984C27.3128 16.712 27.7928 18.08 28.7528 19.088C29.7128 20.072 31.0688 20.564 32.8208 20.564ZM60.1856 26.252C58.0496 26.252 56.1656 25.808 54.5336 24.92C52.9256 24.032 51.6776 22.784 50.7896 21.176C49.9016 19.568 49.4576 17.72 49.4576 15.632C49.4576 12.68 50.0936 10.052 51.3656 7.748C52.6376 5.42 54.4016 3.608 56.6576 2.312C58.9376 1.016 61.5176 0.368 64.3976 0.368C66.5576 0.368 68.4536 0.812 70.0856 1.7C71.7176 2.564 72.9776 3.8 73.8656 5.408C74.7536 6.992 75.1976 8.816 75.1976 10.88C75.1976 13.832 74.5616 16.484 73.2896 18.836C72.0176 21.164 70.2416 22.988 67.9616 24.308C65.6816 25.604 63.0896 26.252 60.1856 26.252ZM61.1216 20.564C62.7056 20.564 64.0976 20.156 65.2976 19.34C66.4976 18.524 67.4216 17.432 68.0696 16.064C68.7416 14.672 69.0776 13.172 69.0776 11.564C69.0776 9.836 68.5976 8.48 67.6376 7.496C66.6776 6.512 65.3336 6.02 63.6056 6.02C62.0216 6.02 60.6176 6.428 59.3936 7.244C58.1936 8.06 57.2576 9.152 56.5856 10.52C55.9376 11.864 55.6136 13.352 55.6136 14.984C55.6136 16.712 56.0936 18.08 57.0536 19.088C58.0136 20.072 59.3696 20.564 61.1216 20.564ZM90.3944 0.727999C92.7224 0.727999 94.7264 1.148 96.4064 1.988C98.1104 2.804 99.4064 3.968 100.294 5.48C101.206 6.968 101.662 8.72 101.662 10.736C101.662 11.432 101.578 12.308 101.41 13.364C100.978 15.836 100.042 18.032 98.6024 19.952C97.1864 21.872 95.3744 23.36 93.1664 24.416C90.9824 25.472 88.5704 26 85.9304 26H76.4624L80.9264 0.727999H90.3944ZM86.4704 20.744C88.7984 20.744 90.7304 20.096 92.2664 18.8C93.8024 17.504 94.7624 15.692 95.1464 13.364C95.2664 12.644 95.3264 12.044 95.3264 11.564C95.3264 9.788 94.7864 8.42 93.7064 7.46C92.6264 6.476 91.0904 5.984 89.0984 5.984H86.1464L83.5544 20.744H86.4704ZM21.608 54.252C18.872 54.252 16.64 53.664 14.912 52.488C13.208 51.288 12.356 49.596 12.356 47.412C12.356 47.196 12.38 46.872 12.428 46.44H18.836C18.764 47.352 18.98 48.072 19.484 48.6C19.988 49.128 20.756 49.392 21.788 49.392C22.724 49.392 23.456 49.188 23.984 48.78C24.536 48.372 24.812 47.796 24.812 47.052C24.812 46.284 24.464 45.66 23.768 45.18C23.096 44.7 22.04 44.16 20.6 43.56C19.208 42.984 18.068 42.444 17.18 41.94C16.316 41.412 15.56 40.704 14.912 39.816C14.264 38.928 13.94 37.812 13.94 36.468C13.916 34.812 14.324 33.372 15.164 32.148C16.004 30.924 17.168 29.988 18.656 29.34C20.144 28.692 21.848 28.368 23.768 28.368C25.496 28.368 27.032 28.644 28.376 29.196C29.72 29.724 30.764 30.504 31.508 31.536C32.252 32.544 32.624 33.744 32.624 35.136C32.624 35.496 32.612 35.76 32.588 35.928H26.036C26.06 35.832 26.072 35.688 26.072 35.496C26.072 34.824 25.832 34.284 25.352 33.876C24.896 33.444 24.26 33.228 23.444 33.228C22.58 33.228 21.872 33.444 21.32 33.876C20.792 34.284 20.528 34.848 20.528 35.568C20.528 36.288 20.864 36.9 21.536 37.404C22.208 37.884 23.252 38.448 24.668 39.096C26.084 39.744 27.236 40.344 28.124 40.896C29.036 41.448 29.816 42.192 30.464 43.128C31.112 44.04 31.436 45.168 31.436 46.512C31.436 48 31.04 49.332 30.248 50.508C29.456 51.684 28.316 52.608 26.828 53.28C25.34 53.928 23.6 54.252 21.608 54.252ZM44.4705 28.728L41.8065 43.812C41.7105 44.436 41.6625 44.868 41.6625 45.108C41.6625 46.212 41.9745 47.064 42.5985 47.664C43.2225 48.24 44.1465 48.528 45.3705 48.528C46.8105 48.528 47.9865 48.12 48.8985 47.304C49.8105 46.488 50.3985 45.324 50.6625 43.812L53.3265 28.728H59.4825L56.8185 43.812C56.4105 46.092 55.5945 48.024 54.3705 49.608C53.1705 51.168 51.6945 52.332 49.9425 53.1C48.2145 53.868 46.3305 54.252 44.2905 54.252C41.6505 54.252 39.5145 53.568 37.8825 52.2C36.2745 50.832 35.4705 48.852 35.4705 46.26C35.4705 45.492 35.5425 44.676 35.6865 43.812L38.3145 28.728H44.4705ZM69.9613 28.728L65.4973 54H59.3413L63.8053 28.728H69.9613ZM92.6025 28.728L91.7745 33.588H85.0425L81.4425 54H75.2865L78.8865 33.588H72.1905L73.0545 28.728H92.6025Z" fill="#E5F9FF"/>
</svg>
