<svg width="117" height="70" viewBox="0 0 117 70" fill="none" xmlns="http://www.w3.org/2000/svg">
<rect x="0.5" y="0.5" width="116" height="69" fill="#F11717"/>
<rect x="0.5" y="0.5" width="116" height="69" stroke="#E5F9FF" stroke-dasharray="2 2"/>
<path d="M28.5893 8.728L27.7253 13.588H17.4293L16.4933 19.024H24.1973L23.3333 23.704H15.6293L13.8293 34H7.67334L12.1373 8.728H28.5893ZM39.3848 34.252C37.2488 34.252 35.3648 33.808 33.7328 32.92C32.1248 32.032 30.8768 30.784 29.9888 29.176C29.1008 27.568 28.6568 25.72 28.6568 23.632C28.6568 20.68 29.2928 18.052 30.5648 15.748C31.8368 13.42 33.6008 11.608 35.8568 10.312C38.1368 9.016 40.7168 8.368 43.5968 8.368C45.7568 8.368 47.6528 8.812 49.2848 9.7C50.9168 10.564 52.1768 11.8 53.0648 13.408C53.9528 14.992 54.3968 16.816 54.3968 18.88C54.3968 21.832 53.7608 24.484 52.4888 26.836C51.2168 29.164 49.4408 30.988 47.1608 32.308C44.8808 33.604 42.2888 34.252 39.3848 34.252ZM40.3208 28.564C41.9048 28.564 43.2968 28.156 44.4968 27.34C45.6968 26.524 46.6208 25.432 47.2688 24.064C47.9408 22.672 48.2768 21.172 48.2768 19.564C48.2768 17.836 47.7968 16.48 46.8368 15.496C45.8768 14.512 44.5328 14.02 42.8048 14.02C41.2208 14.02 39.8168 14.428 38.5928 15.244C37.3928 16.06 36.4568 17.152 35.7848 18.52C35.1368 19.864 34.8128 21.352 34.8128 22.984C34.8128 24.712 35.2928 26.08 36.2528 27.088C37.2128 28.072 38.5688 28.564 40.3208 28.564ZM67.6856 34.252C65.5496 34.252 63.6656 33.808 62.0336 32.92C60.4256 32.032 59.1776 30.784 58.2896 29.176C57.4016 27.568 56.9576 25.72 56.9576 23.632C56.9576 20.68 57.5936 18.052 58.8656 15.748C60.1376 13.42 61.9016 11.608 64.1576 10.312C66.4376 9.016 69.0176 8.368 71.8976 8.368C74.0576 8.368 75.9536 8.812 77.5856 9.7C79.2176 10.564 80.4776 11.8 81.3656 13.408C82.2536 14.992 82.6976 16.816 82.6976 18.88C82.6976 21.832 82.0616 24.484 80.7896 26.836C79.5176 29.164 77.7416 30.988 75.4616 32.308C73.1816 33.604 70.5896 34.252 67.6856 34.252ZM68.6216 28.564C70.2056 28.564 71.5976 28.156 72.7976 27.34C73.9976 26.524 74.9216 25.432 75.5696 24.064C76.2416 22.672 76.5776 21.172 76.5776 19.564C76.5776 17.836 76.0976 16.48 75.1376 15.496C74.1776 14.512 72.8336 14.02 71.1056 14.02C69.5216 14.02 68.1176 14.428 66.8936 15.244C65.6936 16.06 64.7576 17.152 64.0856 18.52C63.4376 19.864 63.1136 21.352 63.1136 22.984C63.1136 24.712 63.5936 26.08 64.5536 27.088C65.5136 28.072 66.8696 28.564 68.6216 28.564ZM97.8944 8.728C100.222 8.728 102.226 9.148 103.906 9.988C105.61 10.804 106.906 11.968 107.794 13.48C108.706 14.968 109.162 16.72 109.162 18.736C109.162 19.432 109.078 20.308 108.91 21.364C108.478 23.836 107.542 26.032 106.102 27.952C104.686 29.872 102.874 31.36 100.666 32.416C98.4824 33.472 96.0704 34 93.4304 34H83.9624L88.4264 8.728H97.8944ZM93.9704 28.744C96.2984 28.744 98.2304 28.096 99.7664 26.8C101.302 25.504 102.262 23.692 102.646 21.364C102.766 20.644 102.826 20.044 102.826 19.564C102.826 17.788 102.286 16.42 101.206 15.46C100.126 14.476 98.5904 13.984 96.5984 13.984H93.6464L91.0544 28.744H93.9704ZM29.108 62.252C26.372 62.252 24.14 61.664 22.412 60.488C20.708 59.288 19.856 57.596 19.856 55.412C19.856 55.196 19.88 54.872 19.928 54.44H26.336C26.264 55.352 26.48 56.072 26.984 56.6C27.488 57.128 28.256 57.392 29.288 57.392C30.224 57.392 30.956 57.188 31.484 56.78C32.036 56.372 32.312 55.796 32.312 55.052C32.312 54.284 31.964 53.66 31.268 53.18C30.596 52.7 29.54 52.16 28.1 51.56C26.708 50.984 25.568 50.444 24.68 49.94C23.816 49.412 23.06 48.704 22.412 47.816C21.764 46.928 21.44 45.812 21.44 44.468C21.416 42.812 21.824 41.372 22.664 40.148C23.504 38.924 24.668 37.988 26.156 37.34C27.644 36.692 29.348 36.368 31.268 36.368C32.996 36.368 34.532 36.644 35.876 37.196C37.22 37.724 38.264 38.504 39.008 39.536C39.752 40.544 40.124 41.744 40.124 43.136C40.124 43.496 40.112 43.76 40.088 43.928H33.536C33.56 43.832 33.572 43.688 33.572 43.496C33.572 42.824 33.332 42.284 32.852 41.876C32.396 41.444 31.76 41.228 30.944 41.228C30.08 41.228 29.372 41.444 28.82 41.876C28.292 42.284 28.028 42.848 28.028 43.568C28.028 44.288 28.364 44.9 29.036 45.404C29.708 45.884 30.752 46.448 32.168 47.096C33.584 47.744 34.736 48.344 35.624 48.896C36.536 49.448 37.316 50.192 37.964 51.128C38.612 52.04 38.936 53.168 38.936 54.512C38.936 56 38.54 57.332 37.748 58.508C36.956 59.684 35.816 60.608 34.328 61.28C32.84 61.928 31.1 62.252 29.108 62.252ZM51.9705 36.728L49.3065 51.812C49.2105 52.436 49.1625 52.868 49.1625 53.108C49.1625 54.212 49.4745 55.064 50.0985 55.664C50.7225 56.24 51.6465 56.528 52.8705 56.528C54.3105 56.528 55.4865 56.12 56.3985 55.304C57.3105 54.488 57.8985 53.324 58.1625 51.812L60.8265 36.728H66.9825L64.3185 51.812C63.9105 54.092 63.0945 56.024 61.8705 57.608C60.6705 59.168 59.1945 60.332 57.4425 61.1C55.7145 61.868 53.8305 62.252 51.7905 62.252C49.1505 62.252 47.0145 61.568 45.3825 60.2C43.7745 58.832 42.9705 56.852 42.9705 54.26C42.9705 53.492 43.0425 52.676 43.1865 51.812L45.8145 36.728H51.9705ZM77.4613 36.728L72.9973 62H66.8413L71.3053 36.728H77.4613ZM100.103 36.728L99.2745 41.588H92.5425L88.9425 62H82.7865L86.3865 41.588H79.6905L80.5545 36.728H100.103Z" fill="#E5F9FF"/>
</svg>
